<svg role="img" aria-hidden="true" xmlns="http://www.w3.org/2000/svg" width="25" height="24" viewBox="0 0 25 24"><path d="M11.672,23.932C11.413,23.838 0.418,16.486 0.25,16.294C0.167,16.2 0.078,16.044 0.051,15.947C-0.017,15.702 -0.017,8.291 0.051,8.046C0.078,7.949 0.167,7.793 0.25,7.699C0.336,7.601 2.796,5.931 6.005,3.792C11.943,-0.167 11.754,-0.052 12.195,0.022C12.348,0.048 13.6,0.862 17.995,3.792C21.204,5.931 23.664,7.601 23.75,7.699C23.833,7.792 23.922,7.949 23.949,8.046C24.017,8.291 24.017,15.702 23.949,15.947C23.922,16.044 23.833,16.2 23.75,16.294C23.582,16.486 12.587,23.838 12.328,23.932C12.238,23.964 12.09,23.991 12,23.991C11.91,23.991 11.762,23.964 11.672,23.932ZM10.969,18.632L10.969,16.222L8.778,14.756C7.573,13.95 6.554,13.289 6.513,13.288C6.443,13.286 2.91,15.604 2.91,15.652C2.91,15.671 10.911,21.027 10.957,21.039C10.963,21.041 10.969,19.958 10.969,18.632L10.969,18.632ZM21.089,15.652C21.089,15.639 20.289,15.094 19.31,14.44C18.132,13.653 17.507,13.261 17.457,13.28C17.416,13.296 16.403,13.966 15.207,14.77L13.031,16.231L13.031,21.042L17.061,18.359C19.277,16.883 21.09,15.665 21.089,15.652ZM13.805,13.231C14.797,12.569 15.609,12.014 15.609,11.996C15.609,11.979 14.797,11.424 13.805,10.762L12,9.559L10.194,10.763C9.201,11.425 8.395,11.984 8.402,12.005C8.412,12.034 11.933,14.416 11.988,14.431C11.994,14.433 12.812,13.892 13.805,13.231ZM4.595,11.996C4.595,11.977 4.025,11.578 3.329,11.109L2.064,10.257L2.064,13.736L3.329,12.884C4.025,12.415 4.595,12.016 4.595,11.996ZM21.936,11.998L21.936,10.267L20.683,11.11C19.993,11.574 19.429,11.973 19.429,11.996C19.429,12.027 21.833,13.693 21.925,13.726C21.931,13.728 21.936,12.951 21.936,11.998L21.936,11.998ZM8.783,9.233L10.969,7.77L10.969,2.95L6.939,5.633C4.723,7.109 2.91,8.327 2.91,8.34C2.91,8.398 6.454,10.725 6.521,10.711C6.563,10.703 7.581,10.038 8.783,9.233ZM19.32,9.547C20.293,8.896 21.089,8.353 21.089,8.34C21.09,8.327 19.277,7.109 17.061,5.633L13.031,2.95L13.031,7.762L15.242,9.246C16.458,10.063 17.475,10.731 17.502,10.731C17.529,10.731 18.347,10.198 19.32,9.547Z"/></svg>
